<?xml version="1.0" encoding="utf-8"?>

<!-- Uploaded to: SVG Repo, www.svgrepo.com, Generator: SVG Repo Mixer Tools -->
<svg width="800px" height="800px" viewBox="0 0 24 24" xmlns="http://www.w3.org/2000/svg">
<g id="style=stroke">
<g id="heart">
<path id="vector (Stroke)" d="M1.25 8.6901C1.25 5.18939 4.07229 2.3501 7.56 2.3501C9.29674 2.3501 10.8646 3.05608 12.0003 4.19481C13.1385 3.05574 14.7122 2.3501 16.44 2.3501C19.9277 2.3501 22.75 5.18939 22.75 8.6901C22.75 12.4396 21.0107 15.4002 18.9342 17.5277C16.8683 19.6444 14.4235 20.9862 12.8657 21.5187C12.5914 21.6148 12.2773 21.6501 12 21.6501C11.7227 21.6501 11.4086 21.6148 11.1343 21.5187C9.57655 20.9862 7.13169 19.6444 5.06577 17.5277C2.98932 15.4002 1.25 12.4396 1.25 8.6901Z" fill="#000000"/>
</g>
</g>
</svg>